<svg xmlns="http://www.w3.org/2000/svg" width="62.25" height="62.25" viewBox="0 0 62.25 62.25">
  <path id="Icon_ionic-ios-checkmark-circle" data-name="Icon ionic-ios-checkmark-circle" d="M34.5,3.375A31.125,31.125,0,1,0,65.625,34.5,31.12,31.12,0,0,0,34.5,3.375ZM50.437,25.9,30.43,45.992h-.015a2.7,2.7,0,0,1-1.736.823,2.62,2.62,0,0,1-1.751-.853l-8.38-8.38a.6.6,0,0,1,0-.853l2.664-2.664a.579.579,0,0,1,.838,0l6.644,6.644L46.95,22.319a.591.591,0,0,1,.419-.18h0a.543.543,0,0,1,.419.18l2.619,2.708A.59.59,0,0,1,50.437,25.9Z" transform="translate(-3.375 -3.375)" fill="#00a9ff"/>
</svg>
