<svg id="Group_116" data-name="Group 116" xmlns="http://www.w3.org/2000/svg" xmlns:xlink="http://www.w3.org/1999/xlink" width="89.18" height="86.264" viewBox="0 0 89.18 86.264">
  <defs>
    <clipPath id="clip-path">
      <rect id="Rectangle_73" data-name="Rectangle 73" width="89.18" height="86.264" fill="none" stroke="#fff" stroke-width="2"/>
    </clipPath>
  </defs>
  <g id="Group_115" data-name="Group 115" clip-path="url(#clip-path)">
    <path id="Path_134" data-name="Path 134" d="M160.739,194.216c-7.1,2.908-11.611-3.546-11.611-3.546s-.172,3.174-5.73,3.546" transform="translate(-108.323 -144.033)" fill="none" stroke="#fff" stroke-linecap="round" stroke-linejoin="round" stroke-width="2"/>
    <path id="Path_135" data-name="Path 135" d="M143.071,176.138s-.319.571-.71.135c-1.095-1.222-2.914-4.584-1.129-6.11-.3-5.574.23-6.665.23-6.665s2.758-5.516,8.5-5.057c4.367.23,8.5,2.3,8.964,5.976a27.389,27.389,0,0,1,0,6.422s2.044-.106.593,3.183c-.677,1.451-1.741,2.805-2.612,1.741" transform="translate(-106.119 -119.665)" fill="none" stroke="#fff" stroke-linecap="round" stroke-linejoin="round" stroke-width="2"/>
    <path id="Path_136" data-name="Path 136" d="M116.233,269.262a51.1,51.1,0,0,1,10.24,2.61c3.831,1.153,3.794,3.586,3.988,5.811.139,1.884.682,6.841.973,9.455a1.5,1.5,0,0,1-1.495,1.669h-43.2a1.541,1.541,0,0,1-1.539-1.576A81.77,81.77,0,0,1,86.327,277.1a5.994,5.994,0,0,1,3.772-4.643l10.431-3.156" transform="translate(-64.363 -203.4)" fill="none" stroke="#fff" stroke-linecap="round" stroke-linejoin="round" stroke-width="2"/>
    <path id="Path_137" data-name="Path 137" d="M151.051,229.622s1.188,6.639,4.771,7.567,7.9-.576,9.048-7.814" transform="translate(-114.104 -173.269)" fill="none" stroke="#fff" stroke-linecap="round" stroke-linejoin="round" stroke-width="2"/>
    <path id="Path_138" data-name="Path 138" d="M165.557,272.105,163.8,282.917l3.353,4.023,3.619-4.023-1.521-10.726" transform="translate(-123.736 -205.548)" fill="none" stroke="#fff" stroke-linecap="round" stroke-linejoin="round" stroke-width="2"/>
    <path id="Path_139" data-name="Path 139" d="M278.1,232.558c-5.092,2.084-8.322-2.541-8.322-2.541s-.124,2.275-4.107,2.541" transform="translate(-200.688 -173.754)" fill="none" stroke="#fff" stroke-linecap="round" stroke-linejoin="round" stroke-width="2"/>
    <path id="Path_140" data-name="Path 140" d="M265.438,219.6s-.229.409-.509.1c-.784-.875-2.089-3.285-.809-4.38-.218-4,.165-4.778.165-4.778s1.977-3.954,6.1-3.624c3.13.165,6.1,1.647,6.425,4.283a19.642,19.642,0,0,1,0,4.6s1.465-.076.425,2.281c-.485,1.04-1.248,2.011-1.872,1.248" transform="translate(-199.109 -156.288)" fill="none" stroke="#fff" stroke-linecap="round" stroke-linejoin="round" stroke-width="2"/>
    <path id="Path_141" data-name="Path 141" d="M296.229,286.347a41.5,41.5,0,0,1,7.74,1.871c2.746.827,2.719,2.57,2.858,4.165.1,1.351.489,4.9.7,6.777a1.077,1.077,0,0,1-1.071,1.2H290.188" transform="translate(-219.207 -216.306)" fill="none" stroke="#fff" stroke-linecap="round" stroke-linejoin="round" stroke-width="2"/>
    <path id="Path_142" data-name="Path 142" d="M271.158,257.935s.851,4.758,3.42,5.424,5.66-.413,6.485-5.6" transform="translate(-204.832 -194.71)" fill="none" stroke="#fff" stroke-linecap="round" stroke-linejoin="round" stroke-width="2"/>
    <path id="Path_143" data-name="Path 143" d="M57.64,232.558c-5.092,2.084-8.322-2.541-8.322-2.541s-.124,2.275-4.107,2.541" transform="translate(-34.152 -173.754)" fill="none" stroke="#fff" stroke-linecap="round" stroke-linejoin="round" stroke-width="2"/>
    <path id="Path_144" data-name="Path 144" d="M44.977,219.6s-.229.409-.509.1c-.784-.875-2.089-3.285-.809-4.38-.218-4,.165-4.778.165-4.778s1.977-3.954,6.1-3.624c3.13.165,6.1,1.647,6.425,4.283a19.64,19.64,0,0,1,0,4.6s1.465-.076.425,2.281c-.485,1.04-1.248,2.011-1.872,1.248" transform="translate(-32.573 -156.288)" fill="none" stroke="#fff" stroke-linecap="round" stroke-linejoin="round" stroke-width="2"/>
    <path id="Path_145" data-name="Path 145" d="M19.631,300.449H4.6a1.1,1.1,0,0,1-1.1-1.129,58.666,58.666,0,0,1,.8-7.26,4.3,4.3,0,0,1,2.7-3.328l7.476-2.262" transform="translate(-2.643 -216.399)" fill="none" stroke="#fff" stroke-linecap="round" stroke-linejoin="round" stroke-width="2"/>
    <path id="Path_146" data-name="Path 146" d="M50.7,257.935s.851,4.758,3.42,5.424,5.66-.413,6.485-5.6" transform="translate(-38.296 -194.71)" fill="none" stroke="#fff" stroke-linecap="round" stroke-linejoin="round" stroke-width="2"/>
    <path id="Path_147" data-name="Path 147" d="M112.321,14.548h11.611L127.521,3.5l3.589,11.049h11.611l-9.384,6.832,3.589,11.049L127.521,25.6l-9.405,6.833L121.7,21.381Z" transform="translate(-84.847 -2.644)" fill="none" stroke="#fff" stroke-linecap="round" stroke-linejoin="round" stroke-width="2"/>
    <path id="Path_148" data-name="Path 148" d="M245.369,71.583h9.4l2.907-8.947,2.906,8.947h9.4l-7.6,5.533,2.907,8.947-7.616-5.533-7.616,5.533,2.906-8.947Z" transform="translate(-185.351 -47.315)" fill="none" stroke="#fff" stroke-linecap="round" stroke-linejoin="round" stroke-width="2"/>
    <path id="Path_149" data-name="Path 149" d="M11.678,71.583h9.4l2.907-8.947,2.906,8.947h9.4l-7.6,5.533L31.6,86.063,23.987,80.53,16.37,86.063l2.906-8.947Z" transform="translate(-8.821 -47.315)" fill="none" stroke="#fff" stroke-linecap="round" stroke-linejoin="round" stroke-width="2"/>
  </g>
</svg>
