<svg id="Group_114" data-name="Group 114" xmlns="http://www.w3.org/2000/svg" xmlns:xlink="http://www.w3.org/1999/xlink" width="89.233" height="79.077" viewBox="0 0 89.233 79.077">
  <defs>
    <clipPath id="clip-path">
      <rect id="Rectangle_72" data-name="Rectangle 72" width="89.233" height="79.077" fill="none" stroke="#fff" stroke-width="2"/>
    </clipPath>
  </defs>
  <g id="Group_113" data-name="Group 113" clip-path="url(#clip-path)">
    <path id="Path_125" data-name="Path 125" d="M298.256,15.185V19.51a1.126,1.126,0,0,1-1.163,1.085h-16a1.126,1.126,0,0,1-1.163-1.085V4.585A1.126,1.126,0,0,1,281.1,3.5h8.88" transform="translate(-211.118 -2.64)" fill="none" stroke="#fff" stroke-linecap="round" stroke-linejoin="round" stroke-width="2"/>
    <path id="Path_126" data-name="Path 126" d="M302.526,14.34l3.608,3.322,10.4-9.477" transform="translate(-228.158 -6.173)" fill="none" stroke="#fff" stroke-linecap="round" stroke-linejoin="round" stroke-width="2"/>
    <path id="Path_127" data-name="Path 127" d="M298.256,137.756v4.323a1.126,1.126,0,0,1-1.163,1.085h-16a1.126,1.126,0,0,1-1.163-1.085V127.154a1.126,1.126,0,0,1,1.163-1.085h9.523" transform="translate(-211.118 -95.078)" fill="none" stroke="#fff" stroke-linecap="round" stroke-linejoin="round" stroke-width="2"/>
    <path id="Path_128" data-name="Path 128" d="M302.526,136.909l3.608,3.322,10.4-9.477" transform="translate(-228.158 -98.611)" fill="none" stroke="#fff" stroke-linecap="round" stroke-linejoin="round" stroke-width="2"/>
    <path id="Path_129" data-name="Path 129" d="M298.256,260.19v4.458a1.126,1.126,0,0,1-1.163,1.085h-16a1.126,1.126,0,0,1-1.163-1.085V249.723a1.126,1.126,0,0,1,1.163-1.085h15.879a1.282,1.282,0,0,1,1.282,1.282Z" transform="translate(-211.118 -187.517)" fill="none" stroke="#fff" stroke-linecap="round" stroke-linejoin="round" stroke-width="2"/>
    <rect id="Rectangle_71" data-name="Rectangle 71" width="8.924" height="27.349" transform="translate(0.86 32.557)" fill="none" stroke="#fff" stroke-linecap="round" stroke-linejoin="round" stroke-width="2"/>
    <path id="Path_130" data-name="Path 130" d="M39.8,98.478s6.035-.927,12.783-6.382c6.888-5.564,10.425-7.364,12.736-6.873,4.157.883,1.879,4.686-.895,7.155a34.7,34.7,0,0,1-6.148,4.394H86.145a3.185,3.185,0,0,1,3.841,3.411,3.506,3.506,0,0,1-3.437,3.841H63.1" transform="translate(-30.019 -64.215)" fill="none" stroke="#fff" stroke-linecap="round" stroke-linejoin="round" stroke-width="2"/>
    <path id="Path_131" data-name="Path 131" d="M142.724,161.94s4,4.914-1.643,6.844H129.634" transform="translate(-97.767 -122.131)" fill="none" stroke="#fff" stroke-linecap="round" stroke-linejoin="round" stroke-width="2"/>
    <path id="Path_132" data-name="Path 132" d="M140.258,192.367s3.753,6.444-2.628,6.671a77.438,77.438,0,0,1-8.086,0" transform="translate(-97.676 -145.079)" fill="none" stroke="#fff" stroke-linecap="round" stroke-linejoin="round" stroke-width="2"/>
    <path id="Path_133" data-name="Path 133" d="M72.264,221.573s3.553,4.092-1.338,5.48c-6.754.6-10.241.688-15.295-.727a37.593,37.593,0,0,0-12.541-.924" transform="translate(-32.498 -167.105)" fill="none" stroke="#fff" stroke-linecap="round" stroke-linejoin="round" stroke-width="2"/>
  </g>
</svg>
