<svg xmlns="http://www.w3.org/2000/svg" xmlns:xlink="http://www.w3.org/1999/xlink" width="91.234" height="88.772" viewBox="0 0 91.234 88.772">
  <defs>
    <clipPath id="clip-path">
      <rect id="Rectangle_70" data-name="Rectangle 70" width="91.234" height="88.772" fill="#fff"/>
    </clipPath>
  </defs>
  <g id="Group_112" data-name="Group 112" transform="translate(3 -1)">
    <g id="Group_111" data-name="Group 111" transform="translate(-3 1)" clip-path="url(#clip-path)">
      <path id="Path_103" data-name="Path 103" d="M471.492,185.982a1.248,1.248,0,0,0,1.248,1.248h.905a1.248,1.248,0,0,0,0-2.5h-.905a1.248,1.248,0,0,0-1.248,1.248" transform="translate(-408.373 -160.003)" fill="#fff"/>
      <path id="Path_104" data-name="Path 104" d="M453.34,257.13l.784.453a1.248,1.248,0,0,0,1.248-2.162l-.784-.453a1.248,1.248,0,0,0-1.248,2.162" transform="translate(-392.11 -220.69)" fill="#fff"/>
      <path id="Path_105" data-name="Path 105" d="M401.591,307.967l.453.784a1.248,1.248,0,0,0,2.162-1.248l-.453-.784a1.248,1.248,0,1,0-2.162,1.248" transform="translate(-347.684 -265.117)" fill="#fff"/>
      <path id="Path_106" data-name="Path 106" d="M454.124,111.452l-.784.453a1.248,1.248,0,1,0,1.248,2.162l.784-.453a1.248,1.248,0,0,0-1.248-2.162" transform="translate(-392.11 -96.386)" fill="#fff"/>
      <path id="Path_107" data-name="Path 107" d="M185.848,184.734a1.248,1.248,0,1,0,0,2.5h.905a1.248,1.248,0,1,0,0-2.5Z" transform="translate(-159.887 -160.003)" fill="#fff"/>
      <path id="Path_108" data-name="Path 108" d="M205.688,254.968l-.784.453a1.248,1.248,0,1,0,1.248,2.162l.784-.453a1.248,1.248,0,0,0-1.248-2.162" transform="translate(-176.933 -220.69)" fill="#fff"/>
      <path id="Path_109" data-name="Path 109" d="M258.668,306.717l-.453.784a1.248,1.248,0,1,0,2.162,1.248l.453-.784a1.248,1.248,0,0,0-2.162-1.248" transform="translate(-223.503 -265.116)" fill="#fff"/>
      <path id="Path_110" data-name="Path 110" d="M402.67,60.8h.019a1.248,1.248,0,0,0,1.082-.624l.453-.784a1.256,1.256,0,0,0-2.181-1.248l-.453.784a1.249,1.249,0,0,0,1.08,1.873" transform="translate(-347.684 -49.816)" fill="#fff"/>
      <path id="Path_111" data-name="Path 111" d="M206.936,111.9l-.784-.453a1.248,1.248,0,1,0-1.248,2.162l.784.453a1.248,1.248,0,0,0,1.248-2.162" transform="translate(-176.932 -96.386)" fill="#fff"/>
      <path id="Path_112" data-name="Path 112" d="M332.613,324.869H332.6a1.248,1.248,0,0,0-1.248,1.248v.905a1.248,1.248,0,0,0,1.248,1.248h.019a1.248,1.248,0,0,0,1.248-1.248v-.905a1.248,1.248,0,0,0-1.248-1.248h-.01" transform="translate(-286.997 -281.378)" fill="#fff"/>
      <path id="Path_113" data-name="Path 113" d="M254.233,106.172a1,1,0,0,0,1.364.365l7.746-4.472a3.456,3.456,0,1,0,3.364-5.829v-10.3a1,1,0,1,0-2,0v10.3a3.459,3.459,0,0,0-2.367,4.1l-7.744,4.471a1,1,0,0,0-.366,1.364m11.476-8.085a1.46,1.46,0,1,1-1.46,1.46,1.462,1.462,0,0,1,1.46-1.46" transform="translate(-220.083 -73.567)" fill="#fff"/>
      <path id="Path_114" data-name="Path 114" d="M259.609,60.8h.019a1.248,1.248,0,0,0,1.08-1.873l-.453-.784a1.256,1.256,0,0,0-2.181,1.248l.453.784a1.248,1.248,0,0,0,1.082.624" transform="translate(-223.38 -49.816)" fill="#fff"/>
      <path id="Path_115" data-name="Path 115" d="M332.605,41.238h.019a1.248,1.248,0,0,0,1.248-1.248v-.905a1.248,1.248,0,0,0-1.248-1.248h-.019a1.248,1.248,0,0,0-1.248,1.248v.905a1.248,1.248,0,0,0,1.248,1.248" transform="translate(-286.998 -32.771)" fill="#fff"/>
      <path id="Path_116" data-name="Path 116" d="M425.281,233.566a5.3,5.3,0,0,0-9.049,3.753l-.059,9.67a1.091,1.091,0,0,0,1.091,1.089,1.1,1.1,0,0,0,.891-.461,1.084,1.084,0,0,0,.2-.632l.059-9.67a3.094,3.094,0,0,1,.574-1.8,3.12,3.12,0,0,1,5.666,1.8l-.05,26.017a3.12,3.12,0,0,1-.125.877,3.086,3.086,0,0,1-.448.923c-.06.084-.125.167-.193.246l-.021.022-.011.009-15.532,13.206a1.185,1.185,0,0,0-.1.088,5.339,5.339,0,0,0-.52.625,5.261,5.261,0,0,0-.971,3.064v.487l-14.191.008-.036-10a6.293,6.293,0,0,1,1.162-3.665,6.451,6.451,0,0,1,.627-.754l.028-.026,18.376-14.6.02-.016a3.149,3.149,0,0,1,1.954-.682,3.058,3.058,0,0,1,2.366,1.1,3.007,3.007,0,0,1,.676,2.242,3.137,3.137,0,0,1-.561,1.5,3.209,3.209,0,0,1-.567.611l-.018.016-.015.012-9.033,7.852a1.1,1.1,0,0,0-.166.185,1.092,1.092,0,0,0,1.614,1.448l9.028-7.847.017-.015a5.405,5.405,0,0,0,.926-1,5.316,5.316,0,0,0,.948-2.532,5.177,5.177,0,0,0-1.167-3.857,5.236,5.236,0,0,0-4.052-1.885,5.331,5.331,0,0,0-3.317,1.159l-.008.007L392.934,266.72l-.007.005a1.1,1.1,0,0,0-.153.126,8.655,8.655,0,0,0-.935,1.107,8.463,8.463,0,0,0-1.56,4.93l.035,10h-1.742a1.091,1.091,0,0,0-1.091,1.092l-.005,4.616c0,.012,0,.021,0,.03v.024a1.1,1.1,0,0,0,1.993.612,1.087,1.087,0,0,0,.2-.7v-.013l0-3.482h.111l19.781-.011.008,3.2v.006a1.1,1.1,0,1,0,2.189.112l-.014-4.407a1.094,1.094,0,0,0-1.092-1.092h-1.776v-.488a3.087,3.087,0,0,1,.571-1.8,3.137,3.137,0,0,1,.267-.328l.025-.023L425.3,267l.013-.012.03-.03.007-.007c.015-.014.026-.024.034-.033l.008-.008.01-.009a5.332,5.332,0,0,0,.407-.506l0,0a5.279,5.279,0,0,0,.977-3.069l.05-26.017a5.265,5.265,0,0,0-1.557-3.746" transform="translate(-335.604 -200.953)" fill="#fff"/>
      <path id="Path_117" data-name="Path 117" d="M39.357,283.981a1.091,1.091,0,0,0-1.091-1.092H36.523l.035-10a8.462,8.462,0,0,0-1.56-4.93,8.658,8.658,0,0,0-.935-1.108,1.082,1.082,0,0,0-.152-.125l-.011-.008-18.37-14.6a5.333,5.333,0,0,0-3.317-1.159,5.236,5.236,0,0,0-4.052,1.885A5.177,5.177,0,0,0,7,256.7a5.314,5.314,0,0,0,.948,2.532,5.405,5.405,0,0,0,.926,1.005l.016.014,9.027,7.846a1.091,1.091,0,1,0,1.448-1.633l-9.032-7.851-.018-.014-.016-.014a3.211,3.211,0,0,1-.567-.611,3.141,3.141,0,0,1-.561-1.5,3.008,3.008,0,0,1,.676-2.242,3.058,3.058,0,0,1,2.366-1.1,3.149,3.149,0,0,1,1.955.682l.02.015,18.379,14.6.026.023a6.446,6.446,0,0,1,.627.754,6.293,6.293,0,0,1,1.162,3.664l-.036,10-14.191-.008v-.487a5.262,5.262,0,0,0-.971-3.064,5.378,5.378,0,0,0-.52-.626,1.2,1.2,0,0,0-.1-.087L3.014,265.393,3,265.377c-.068-.078-.133-.161-.193-.246a3.088,3.088,0,0,1-.573-1.8l-.05-26.016a3.12,3.12,0,0,1,6.239,0l.059,9.669a1.091,1.091,0,1,0,2.183,0l-.059-9.668a5.262,5.262,0,0,0-.975-3.064A5.3,5.3,0,0,0,0,237.312l.05,26.017a5.279,5.279,0,0,0,.977,3.069l0,0a5.3,5.3,0,0,0,.407.506l.007.007.009.009c.01.01.021.021.034.033l.007.007.034.034.012.011,15.567,13.235.022.021a3.191,3.191,0,0,1,.267.328,3.09,3.09,0,0,1,.571,1.8l0,.488H16.19a1.094,1.094,0,0,0-1.092,1.092l-.014,4.406a1.1,1.1,0,1,0,2.189-.111v-.006l.008-3.2h.11l19.782.011,0,3.492a1.088,1.088,0,0,0,.2.7,1.1,1.1,0,0,0,.9.462,1.089,1.089,0,0,0,.634-.2,1.1,1.1,0,0,0,.463-.874v-.019c0-.013,0-.022,0-.031Z" transform="translate(0 -200.953)" fill="#fff"/>
      <path id="Path_118" data-name="Path 118" d="M22.856,156.846H30.13a1.107,1.107,0,0,0,0-2.215H22.856a1.107,1.107,0,0,0,0,2.215" transform="translate(-18.837 -133.93)" fill="#fff"/>
      <path id="Path_119" data-name="Path 119" d="M147.014,155.738a1.107,1.107,0,0,0,1.107,1.107h1.01a1.107,1.107,0,1,0,0-2.215h-1.01a1.107,1.107,0,0,0-1.107,1.107" transform="translate(-127.333 -133.93)" fill="#fff"/>
      <path id="Path_120" data-name="Path 120" d="M110.47,241.224h6.249a1.107,1.107,0,1,0,0-2.215H110.47a1.107,1.107,0,1,0,0,2.215" transform="translate(-94.722 -207.012)" fill="#fff"/>
      <path id="Path_121" data-name="Path 121" d="M140.977,343.115a1.107,1.107,0,0,0,1.107,1.107h3.593a1.107,1.107,0,0,0,0-2.215h-3.593a1.107,1.107,0,0,0-1.107,1.107" transform="translate(-122.104 -296.223)" fill="#fff"/>
      <path id="Path_122" data-name="Path 122" d="M119.554,52.757h3.637a1.107,1.107,0,1,0,0-2.215h-3.637a1.107,1.107,0,1,0,0,2.215" transform="translate(-102.59 -43.776)" fill="#fff"/>
      <path id="Path_123" data-name="Path 123" d="M57.677,52.757h1.01a1.107,1.107,0,0,0,0-2.215h-1.01a1.107,1.107,0,1,0,0,2.215" transform="translate(-48.997 -43.776)" fill="#fff"/>
      <path id="Path_124" data-name="Path 124" d="M212.141,25.979a25.865,25.865,0,0,0-6.206-16.832A1.046,1.046,0,0,0,205.829,9a26.12,26.12,0,0,0-8.67-6.565A25.822,25.822,0,0,0,186.5,0h-.034l-.284,0h-.343l-.313.006h-.016a25.99,25.99,0,0,0-19,8.992,1.047,1.047,0,0,0-.106.147,26.321,26.321,0,0,0-4.009,6.384,1.041,1.041,0,0,0-.056.125h0a1.037,1.037,0,0,0,1.917.788l0,0,.011-.025A23.922,23.922,0,0,1,179.054,3.162l.048-.015.214-.065.094-.028L179.59,3l.13-.037.153-.043.159-.043.13-.034.187-.048.108-.027.215-.052.084-.02.253-.057.048-.011q.306-.067.615-.126l.075-.014.226-.042.144-.025.156-.027.177-.028.122-.019.2-.03.1-.014.22-.03.077-.01.239-.029.057-.007.256-.028.04,0,.272-.026.022,0,.288-.024h.005q.754-.057,1.521-.067h.3a24.08,24.08,0,0,1,2.425.123l.017,0,.277.03.034,0,.261.032.052.007.244.033.071.01.227.033.089.014.209.033.113.019.186.032.151.028.149.028.3.06.047.01.256.054.1.021.206.047.116.028.182.044.134.034.16.041.153.04.136.037.174.048.109.031.2.058.073.022.233.071.027.008a23.9,23.9,0,0,1-6.792,46.72h-.023l-.285,0a23.74,23.74,0,0,1-19.916-10.688c-.014-.023-.029-.046-.045-.068h0a1.039,1.039,0,1,0-1.613,1.306,26.025,26.025,0,0,0,17.473,11.2c.026.006.053.012.08.016a26.161,26.161,0,0,0,4,.308h.019l.3,0h.033a26.17,26.17,0,0,0,3.667-.306c.027,0,.053-.01.079-.016a26.02,26.02,0,0,0,21.877-25.655" transform="translate(-140.554)" fill="#fff"/>
    </g>
  </g>
</svg>
